<?xml version="1.0" encoding="utf-8"?>
<!-- Generator: Adobe Illustrator 16.0.0, SVG Export Plug-In . SVG Version: 6.00 Build 0)  -->
<!DOCTYPE svg PUBLIC "-//W3C//DTD SVG 1.1//EN" "http://www.w3.org/Graphics/SVG/1.1/DTD/svg11.dtd">
<svg version="1.1" id="Layer_1" xmlns="http://www.w3.org/2000/svg" xmlns:xlink="http://www.w3.org/1999/xlink" x="0px" y="0px"
	 width="375px" height="3959.722px" viewBox="0 0 375 3959.722" enable-background="new 0 0 375 3959.722" xml:space="preserve">
<rect x="110" fill="#DFE8F0" width="60" height="577"/>
<rect x="283" y="853" fill="#DFE8F0" width="60" height="787"/>
<rect x="81" y="2240" fill="#DFE8F0" width="60" height="242"/>
<rect x="68" y="2824" fill="#DFE8F0" width="60" height="316"/>
<rect x="273" y="3380" fill="#DFE8F0" width="60" height="582"/>
<rect x="170.512" y="3083.023" transform="matrix(0.7868 -0.6172 0.6172 0.7868 -1969.1714 818.7412)" fill="#DFE8F0" width="60" height="353.304"/>
<rect x="235" y="2482" fill="#DFE8F0" width="60" height="242"/>
<rect x="151.506" y="2653.248" transform="matrix(0.613 0.7901 -0.7901 0.613 2261.5254 929.8715)" fill="#DFE8F0" width="60" height="240.718"/>
<rect x="181.877" y="1614.975" transform="matrix(0.9492 0.3147 -0.3147 0.9492 621.6958 31.9622)" fill="#DFE8F0" width="60" height="652.184"/>
<rect x="196.517" y="536.414" transform="matrix(0.8619 -0.5071 0.5071 0.8619 -331.4783 213.6836)" fill="#DFE8F0" width="60" height="357.837"/>
</svg>
